<?xml version="1.0" encoding="utf-8"?>
<!-- Generator: Adobe Illustrator 22.0.1, SVG Export Plug-In . SVG Version: 6.00 Build 0)  -->
<svg version="1.1" xmlns="http://www.w3.org/2000/svg" xmlns:xlink="http://www.w3.org/1999/xlink" x="0px" y="0px" width="157px"
	 height="43px" viewBox="0 0 157 43" style="enable-background:new 0 0 157 43;" xml:space="preserve">
<style type="text/css">
	.st0{display:none;}
	.st1{display:inline;fill:#00057C;}
	.st2{fill:#2E363E;}
</style>
<g id="Layer_2" class="st0">
	<rect x="-31.06" y="-50.77" class="st1" width="567.66" height="407.75"/>
</g>
<g id="Layer_1">
	<path class="st2" d="M144.08,34.42V13.17h5.39v3.22c0.54-1.13,1.27-1.99,2.17-2.6c0.91-0.6,1.99-0.91,3.22-0.91
		c0.38,0,0.74,0.04,1.13,0.1c0.38,0.06,0.7,0.16,1.01,0.26l-0.6,5.55c-0.3-0.1-0.6-0.18-0.91-0.22c-0.3-0.04-0.62-0.06-0.95-0.06
		c-1.55,0-2.76,0.48-3.58,1.43c-0.83,0.95-1.25,2.29-1.25,4.04v10.42H144.08z M133.94,34.42V13.17h5.63v21.25H133.94z M139.98,3.39
		c0,0.62-0.14,1.17-0.42,1.65c-0.28,0.48-0.66,0.87-1.17,1.15c-0.5,0.28-1.05,0.42-1.63,0.42c-0.58,0-1.13-0.14-1.63-0.42
		c-0.5-0.28-0.89-0.66-1.17-1.15c-0.28-0.48-0.42-1.03-0.42-1.65c0-0.62,0.14-1.17,0.42-1.65c0.28-0.48,0.66-0.87,1.17-1.15
		c0.5-0.28,1.05-0.42,1.63-0.42c0.58,0,1.13,0.14,1.63,0.42c0.5,0.28,0.89,0.66,1.17,1.15C139.84,2.22,139.98,2.77,139.98,3.39z
		 M109.03,34.42L117,23.19l-7.08-10.02h6.36l3.9,6.4l3.98-6.4h6.16l-7.04,10.06l7.93,11.19h-6.64l-4.47-7.32l-4.59,7.32H109.03z
		 M100.66,34.42V13.17h5.63v21.25H100.66z M106.69,3.39c0,0.62-0.14,1.17-0.42,1.65s-0.66,0.87-1.17,1.15
		c-0.5,0.28-1.05,0.42-1.63,0.42s-1.13-0.14-1.63-0.42c-0.5-0.28-0.89-0.66-1.17-1.15c-0.28-0.48-0.42-1.03-0.42-1.65
		c0-0.62,0.14-1.17,0.42-1.65c0.28-0.48,0.66-0.87,1.17-1.15c0.5-0.28,1.05-0.42,1.63-0.42s1.13,0.14,1.63,0.42
		c0.5,0.28,0.89,0.66,1.17,1.15S106.69,2.77,106.69,3.39z M90.51,34.42V4.4h5.63v30.02H90.51z M72.52,28.1
		c0,0.74,0.3,1.37,0.93,1.85c0.62,0.48,1.43,0.72,2.46,0.72c0.89,0,1.67-0.18,2.37-0.56c0.7-0.38,1.25-0.89,1.65-1.55
		c0.4-0.66,0.6-1.39,0.6-2.19v-0.2c-0.58-0.24-1.23-0.44-1.89-0.58c-0.66-0.14-1.35-0.22-2.01-0.22c-1.27,0-2.25,0.24-3,0.74
		C72.89,26.61,72.52,27.28,72.52,28.1z M74.54,35.02c-1.11,0-2.11-0.16-3.02-0.48c-0.91-0.32-1.71-0.79-2.39-1.39
		c-0.68-0.6-1.21-1.31-1.59-2.11c-0.38-0.81-0.56-1.69-0.56-2.66c0-1.35,0.36-2.52,1.09-3.54c0.72-1.03,1.75-1.81,3.06-2.39
		c1.31-0.58,2.84-0.87,4.59-0.87c0.89,0,1.73,0.08,2.52,0.24c0.78,0.16,1.57,0.38,2.31,0.68v-1.25c0-1.21-0.34-2.19-1.03-2.94
		c-0.68-0.74-1.61-1.13-2.8-1.13c-0.89,0-1.69,0.22-2.41,0.66c-0.72,0.44-1.23,1.07-1.53,1.87l-5.03-1.01
		c0.3-1.23,0.89-2.31,1.75-3.24c0.87-0.93,1.93-1.65,3.2-2.15s2.64-0.76,4.11-0.76c1.37,0,2.62,0.22,3.74,0.64
		c1.13,0.42,2.09,1.05,2.92,1.85c0.83,0.81,1.45,1.75,1.89,2.84c0.44,1.09,0.66,2.29,0.66,3.64v12.88h-5.19v-2.5
		c-0.56,0.91-1.39,1.65-2.46,2.23C77.29,34.74,76,35.02,74.54,35.02z M52.76,28.82c0.99,0,1.87-0.24,2.64-0.74
		c0.76-0.5,1.37-1.17,1.83-2.01c0.46-0.85,0.68-1.81,0.68-2.88s-0.22-2.03-0.68-2.88c-0.46-0.85-1.07-1.51-1.83-2.01
		c-0.76-0.5-1.65-0.74-2.64-0.74c-0.99,0-1.87,0.24-2.64,0.74c-0.76,0.5-1.37,1.17-1.83,2.01c-0.46,0.85-0.68,1.81-0.68,2.88
		s0.22,2.03,0.68,2.88c0.46,0.85,1.07,1.51,1.83,2.01C50.89,28.58,51.78,28.82,52.76,28.82z M51.39,33.82c-1.35,0-2.6-0.26-3.76-0.8
		c-1.17-0.54-2.17-1.29-3.04-2.23c-0.87-0.95-1.53-2.07-2.01-3.34c-0.48-1.27-0.72-2.66-0.72-4.13c0-1.53,0.24-2.94,0.74-4.25
		c0.5-1.31,1.19-2.44,2.09-3.4c0.91-0.97,1.95-1.73,3.14-2.27c1.19-0.54,2.5-0.83,3.88-0.83c1.37,0,2.6,0.28,3.7,0.83
		c1.11,0.54,2.01,1.35,2.74,2.39l0.12-2.62h5.19v18.71c0,1.63-0.26,3.12-0.78,4.47c-0.52,1.35-1.27,2.5-2.23,3.46
		c-0.97,0.97-2.11,1.71-3.44,2.23c-1.33,0.52-2.8,0.78-4.41,0.78c-1.59,0-3-0.24-4.27-0.74s-2.35-1.19-3.3-2.07
		c-0.95-0.89-1.67-1.91-2.21-3.1l5.39-1.33c0.48,0.78,1.11,1.39,1.87,1.83c0.76,0.44,1.63,0.66,2.6,0.66c1.05,0,1.95-0.24,2.72-0.7
		c0.76-0.46,1.37-1.13,1.79-1.97c0.42-0.85,0.64-1.83,0.64-2.96v-1.73c-0.72,0.97-1.65,1.73-2.76,2.27
		C53.97,33.53,52.74,33.82,51.39,33.82z M32.52,34.42V13.17h5.63v21.25H32.52z M38.56,3.39c0,0.62-0.14,1.17-0.42,1.65
		c-0.28,0.48-0.66,0.87-1.17,1.15c-0.5,0.28-1.05,0.42-1.63,0.42c-0.58,0-1.13-0.14-1.63-0.42c-0.5-0.28-0.89-0.66-1.17-1.15
		c-0.28-0.48-0.42-1.03-0.42-1.65c0-0.62,0.14-1.17,0.42-1.65c0.28-0.48,0.66-0.87,1.17-1.15c0.5-0.28,1.05-0.42,1.63-0.42
		c0.58,0,1.13,0.14,1.63,0.42c0.5,0.28,0.89,0.66,1.17,1.15C38.41,2.22,38.56,2.77,38.56,3.39z M14.73,35.22
		c-1.69,0-3.28-0.24-4.77-0.72c-1.49-0.48-2.84-1.17-4.06-2.07c-1.23-0.91-2.27-1.97-3.14-3.2C1.89,28,1.21,26.61,0.72,25.1
		C0.24,23.59,0,21.96,0,20.21c0-1.75,0.24-3.38,0.72-4.91c0.48-1.53,1.17-2.92,2.05-4.19c0.89-1.27,1.95-2.33,3.18-3.24
		s2.6-1.59,4.08-2.09c1.49-0.5,3.08-0.74,4.77-0.74c1.91,0,3.68,0.3,5.31,0.93c1.63,0.62,3.08,1.51,4.33,2.66
		c1.25,1.15,2.21,2.56,2.92,4.19l-5.8,1.77c-0.72-1.29-1.65-2.27-2.8-2.98c-1.15-0.7-2.46-1.05-3.96-1.05
		c-1.23,0-2.37,0.24-3.42,0.7c-1.05,0.46-1.95,1.15-2.74,2.01c-0.78,0.87-1.39,1.89-1.81,3.04c-0.42,1.15-0.64,2.41-0.64,3.78
		c0,1.39,0.22,2.68,0.64,3.86c0.42,1.19,1.05,2.19,1.83,3.06c0.78,0.87,1.73,1.53,2.8,1.99c1.07,0.46,2.25,0.7,3.54,0.7
		c1.37,0,2.6-0.26,3.66-0.76c1.07-0.5,1.95-1.23,2.62-2.13c0.66-0.91,1.09-1.99,1.25-3.22h-7.12l6.04-4.95h7.24v3.02
		c0,1.99-0.34,3.8-1.03,5.47c-0.68,1.67-1.65,3.1-2.88,4.31c-1.23,1.21-2.72,2.13-4.43,2.8C18.65,34.9,16.76,35.22,14.73,35.22z"/>
</g>
</svg>
